<svg xmlns="http://www.w3.org/2000/svg" viewBox="0 0 436 723.11"><defs><style>.cls-1{fill:#ff6f00;}.cls-2{fill:#b71c1c;}.cls-3{font-size:100px;fill:#f5f5f5;font-family:MavenPro-Regular, Maven Pro;}</style></defs><title>Asset 16logo</title><g id="Layer_2" data-name="Layer 2"><g id="Layer_1-2" data-name="Layer 1"><path class="cls-1" d="M0,0V217S1,344,11,361,136,559,136,559s12,18,27,19,55,0,55,0V111l-91-1a39.58,39.58,0,0,1-27-10C88,89,0,0,0,0Z"/><path class="cls-2" d="M436,1V218s-2,127-11,143S304,558,304,558s-15,19-32,20-54,0-54,0V111l89-1s17,0,27-9S436,1,436,1Z"/><text class="cls-3" transform="translate(89.72 701.41)">Josué</text></g></g></svg>