<svg xmlns="http://www.w3.org/2000/svg" viewBox="0 0 875 944"><defs><style>.cls-1{fill:#212121;stroke:#424242;stroke-miterlimit:10;stroke-width:8px;}.cls-2{fill:#ff6f00;}.cls-3{fill:#b71c1c;}.cls-4{font-size:100px;fill:#f5f5f5;font-family:MavenPro-Regular, Maven Pro;}</style></defs><title>orange-red-blacklogo</title><g id="Layer_2" data-name="Layer 2"><g id="Layer_1-2" data-name="Layer 1"><ellipse class="cls-1" cx="437.5" cy="472" rx="433.5" ry="468"/><path class="cls-2" d="M218,127V344s1,127,11,144S354,686,354,686s12,18,27,19,55,0,55,0V238l-91-1a39.58,39.58,0,0,1-27-10C306,216,218,127,218,127Z"/><path class="cls-3" d="M654,128V345s-2,127-11,143S522,685,522,685s-15,19-32,20-54,0-54,0V238l89-1s17,0,27-9S654,128,654,128Z"/><text class="cls-4" transform="translate(307.72 828.41)">Josué</text></g></g></svg>